# xmcd
#
# Track frame offsets: 
#        150
#        5939
#        10947
#        22254
#        30580
#        39106
#        49059
#        55219
#        67392
#        79123
#        84818
#        92293
#        101706
#        106375
#        110998
#        120544
#        126643
#        134228
#        145310
#        155788
#
# Disc length: 2221 seconds
#
# Revision: 0
# Processed by: cddbd v1.5.2PL0 Copyright (c) Steve Scherf et al.
# Submitted via: ExactAudioCopy v1.1
#
DISCID=2208ab14
DTITLE=Clarence 'Tater' Tate with Red Smiley and The Bluegrass Cut-Ups /
DTITLE=Clarence 'Tater' Tate_20 Bluegrass Fiddle Classics
DYEAR=2011
DGENRE=Instrumental
TTITLE0=Katy Hill
TTITLE1=Sally Goodin
TTITLE2=Lost Indian
TTITLE3=Silver Bells
TTITLE4=Whistlin' Rufus
TTITLE5=Snow Deer
TTITLE6=Salt Creek
TTITLE7=Whiskey Before Breakfast
TTITLE8=Life in the Finland Woods
TTITLE9=Black Eyed Susan
TTITLE10=Fireball Mail with Hylo Brown
TTITLE11=Land of Jubalo
TTITLE12=Big Sandy
TTITLE13=Prosperity Special 
TTITLE14=Sugar Un The Ground
TTITLE15=Dear Old Dixie 
TTITLE16=Sugar Tree Stomp
TTITLE17=Irene Waltz
TTITLE18=Hell Among The Yearlings
TTITLE19=Teetotalers Reel 
EXTD=
EXTT0=
EXTT1=
EXTT2=
EXTT3=
EXTT4=
EXTT5=
EXTT6=
EXTT7=
EXTT8=
EXTT9=
EXTT10=
EXTT11=
EXTT12=
EXTT13=
EXTT14=
EXTT15=
EXTT16=
EXTT17=
EXTT18=
EXTT19=
PLAYORDER=
